<svg xmlns="http://www.w3.org/2000/svg" xmlns:xlink="http://www.w3.org/1999/xlink" version="1.1" id="Layer_1" x="0px" y="0px" style="enable-background:new 0 0 1038.2 394.4;" xml:space="preserve" viewBox="132.4 131 773.3 132.4">
<style type="text/css">
	.st0{fill:#01796F;}
</style>
<g>
	<path class="st0" d="M626.8,153.9h-39v-21.5h103v21.5H652v108h-25.2V153.9z"/>
	<path class="st0" d="M743.6,132.5H798V154h-52c-6.3,0-11.4,5.1-11.4,11.4v21.1H798V208h-63.5v21.1c0,6.3,5.1,11.4,11.4,11.4h52V262   h-54.4c-18.9,0-34.2-15.3-34.2-34.2v-61C709.4,147.8,724.7,132.5,743.6,132.5z"/>
	<path class="st0" d="M819.7,132.5h25.2v96.6c0,6.3,5.1,11.4,11.4,11.4h49.4V262H854c-18.9,0-34.2-15.3-34.2-34.2L819.7,132.5   L819.7,132.5z"/>
	<path class="st0" d="M569.3,166.7v95.2h-25.2v-96.6c0-6.3-5.1-11.4-11.4-11.4h-46.5v108H461V132.5h74   C554,132.5,569.3,147.8,569.3,166.7z"/>
	<path class="st0" d="M255.1,132.5c18.9,0,34.2,15.3,34.2,34.2v95.2h-25.2v-96.6c0-6.3-5.1-11.4-11.4-11.4h-29.3v108h-25.2v-108H169   c-6.3,0-11.4,5.1-11.4,11.4v96.6h-25.2v-95.2c0-18.9,15.3-34.2,34.2-34.2H255.1z"/>
	<path class="st0" d="M375.3,155.3c23.1,0,41.9,18.8,41.9,41.9s-18.8,41.9-41.9,41.9s-41.9-18.8-41.9-41.9S352.2,155.3,375.3,155.3    M375.3,131c-36.6,0-66.2,29.6-66.2,66.2s29.7,66.2,66.2,66.2s66.2-29.6,66.2-66.2S411.9,131,375.3,131L375.3,131z"/>
</g>
</svg>